<?xml version="1.0" encoding="UTF-8"?>
<svg version="1.1" xmlns="http://www.w3.org/2000/svg" width="500" height="500">
<path d="M0 0 C165 0 330 0 500 0 C500 165 500 330 500 500 C335 500 170 500 0 500 C0 335 0 170 0 0 Z " fill="#FEFEFE" transform="translate(0,0)"/>
<path d="M0 0 C11.84572139 9.41281827 17.98619311 22.71489121 19.7858963 37.56411934 C20.21139158 42.40502462 20.15625694 47.25673696 20.16113281 52.11303711 C20.16858017 53.90262344 20.16858017 53.90262344 20.17617798 55.72836304 C20.18822715 58.98306503 20.19572987 62.23773123 20.20018864 65.49245143 C20.20313592 67.53490831 20.20724384 69.57735979 20.21169281 71.61981392 C20.22534802 78.03612995 20.23502259 84.45243337 20.2388947 90.86876291 C20.24336153 98.22640976 20.26085347 105.58386955 20.2898953 112.9414596 C20.31166752 118.65988972 20.32160729 124.37826784 20.32293582 130.09673887 C20.32397343 133.49710638 20.32965319 136.89729765 20.34775543 140.29762077 C20.43320635 159.14874085 20.44998963 176.71121754 12 194 C11.60039062 194.82886719 11.20078125 195.65773438 10.7890625 196.51171875 C9.88292062 198.35292194 8.9456399 200.17876759 8 202 C8.69609375 202.24878906 9.3921875 202.49757813 10.109375 202.75390625 C13.41685809 204.17969964 16.24647951 205.95118165 19.25 207.9375 C20.30703125 208.62714844 21.3640625 209.31679688 22.453125 210.02734375 C25 212 25 212 26 215 C24.96777344 217.43603516 24.96777344 217.43603516 23.359375 220.2890625 C22.78316406 221.31257812 22.20695312 222.33609375 21.61328125 223.390625 C20.99839844 224.45796875 20.38351562 225.5253125 19.75 226.625 C19.15058594 227.70007813 18.55117188 228.77515625 17.93359375 229.8828125 C13.38424107 237.87191964 13.38424107 237.87191964 10 239 C8.13745117 238.1706543 8.13745117 238.1706543 6.04296875 236.82421875 C4.87858276 236.0830481 4.87858276 236.0830481 3.69067383 235.3269043 C2.86462646 234.78590088 2.0385791 234.24489746 1.1875 233.6875 C0.33889404 233.14585205 -0.50971191 232.6042041 -1.3840332 232.04614258 C-5.3857457 229.46664149 -9.30136932 226.82746511 -13.0859375 223.9375 C-13.69977295 223.47255127 -14.3136084 223.00760254 -14.94604492 222.52856445 C-16.07435148 221.65967508 -17.18786088 220.7710815 -18.2824707 219.86010742 C-21.43120951 217.42538191 -22.88061857 216.99320206 -26.91015625 217.22265625 C-27.58602783 217.3513208 -28.26189941 217.47998535 -28.95825195 217.61254883 C-44.51717368 220.56507887 -59.09851264 216.29610308 -71.99609375 207.6640625 C-80.4507403 201.14890057 -85.05535978 191.00619449 -88 181 C-88.34100739 179.89955353 -88.68201477 178.79910706 -89.03335571 177.66531372 C-90.50335566 171.69605762 -90.29496354 165.66734919 -90.29052734 159.55419922 C-90.29652134 158.20628999 -90.30332887 156.85838418 -90.31088257 155.51048279 C-90.32846603 151.86755213 -90.33323483 148.22471558 -90.33451414 144.58174658 C-90.3359412 142.29876207 -90.34022137 140.01580106 -90.34550858 137.73282242 C-90.36398697 129.74797309 -90.37218237 121.76319031 -90.37060547 113.77832031 C-90.36940623 106.36883224 -90.39047129 98.95963647 -90.4220928 91.55022228 C-90.44836892 85.16262011 -90.45896797 78.77511271 -90.45769465 72.38745701 C-90.45718812 68.58417726 -90.46269727 64.78115726 -90.48405075 60.97793198 C-90.50362436 57.394114 -90.50342959 53.81079836 -90.48901749 50.22696114 C-90.48597799 48.30932766 -90.502473 46.39169308 -90.51989746 44.47413635 C-90.413257 29.50894573 -86.00397092 15.12378426 -75.5625 4.0625 C-56.23941794 -13.5505748 -21.45350391 -14.05471932 0 0 Z " fill="#010101" transform="translate(310,130)"/>
<path d="M0 0 C11.22 0 22.44 0 34 0 C34 9.9 34 19.8 34 30 C37.3 30 40.6 30 44 30 C44 38.91 44 47.82 44 57 C40.7 57 37.4 57 34 57 C34.10732976 68.19579979 34.21992764 79.39153282 34.33933926 90.58721066 C34.39461342 95.78525053 34.44804046 100.98329599 34.49731445 106.18139648 C34.5448919 111.19347262 34.59723204 116.20547804 34.65294075 121.21747017 C34.6733944 123.1341025 34.69210239 125.05075425 34.70907402 126.96742058 C34.73305166 129.64233326 34.76311487 132.31711098 34.79467773 134.99194336 C34.80331093 136.19279572 34.80331093 136.19279572 34.81211853 137.41790771 C34.52928653 141.00666694 34.52928653 141.00666694 36 144 C38.64 144.33 41.28 144.66 44 145 C44 152.59 44 160.18 44 168 C37.22710167 169.69322458 32.27336825 170.33679472 25.5 170.3125 C24.15228516 170.33666992 24.15228516 170.33666992 22.77734375 170.36132812 C16.82627373 170.36565933 12.40916186 169.52306543 7 167 C0.64224897 160.64224897 -0.10963107 152.88594706 -0.12442017 144.28811646 C-0.12082489 143.43071869 -0.11722961 142.57332092 -0.11352539 141.68994141 C-0.11367142 140.77222961 -0.11381744 139.85451782 -0.1139679 138.90899658 C-0.11327384 135.88982745 -0.10550523 132.87072079 -0.09765625 129.8515625 C-0.09579027 127.75263503 -0.09436722 125.65370712 -0.09336853 123.55477905 C-0.08955754 118.04090158 -0.07973938 112.52705062 -0.06866455 107.01318359 C-0.05841992 101.38249063 -0.05386437 95.75179336 -0.04882812 90.12109375 C-0.03811582 79.08071755 -0.02105645 68.04036098 0 57 C-2.97 57 -5.94 57 -9 57 C-9 48.09 -9 39.18 -9 30 C-6.03 30 -3.06 30 0 30 C0 20.1 0 10.2 0 0 Z " fill="#5EE1E6" transform="translate(167,177)"/>
<path d="M0 0 C3.11172587 1.79788606 4.60628994 3.1518796 6.12054443 6.41384888 C7.3782665 11.54245523 7.27803935 16.49133736 7.25878906 21.75341797 C7.2622937 22.93137939 7.26579834 24.10934082 7.26940918 25.32299805 C7.27668739 28.54214146 7.27500324 31.76111954 7.26865101 34.98026037 C7.26357011 38.35843585 7.26828847 41.73660067 7.27142334 45.11477661 C7.27505791 50.7889401 7.27027832 56.46305146 7.26074219 62.13720703 C7.24986909 68.68214062 7.2533769 75.22694948 7.264395 81.77188003 C7.27349497 87.40436199 7.27473963 93.03680658 7.26951766 98.66929352 C7.26641147 102.02743262 7.26595103 105.38551327 7.27259064 108.74364853 C7.27768261 112.49178176 7.26990728 116.23967738 7.25878906 119.98779297 C7.26283752 121.09039459 7.26688599 122.19299622 7.27105713 123.32901001 C7.2318531 130.48108495 7.16624071 137.02915559 2.8125 143 C0 145 0 145 -3.5 145.625 C-7.99431607 144.82244356 -9.32144312 143.67344944 -12 140 C-14.19414788 133.27577751 -14.29032594 126.92823059 -14.2746582 119.89599609 C-14.27976913 118.70477646 -14.28488007 117.51355682 -14.29014587 116.28623962 C-14.30161313 113.04049803 -14.30412408 109.79491592 -14.30158257 106.54915953 C-14.30050807 103.83285047 -14.30540804 101.11656462 -14.310188 98.40026057 C-14.3212534 91.99175736 -14.32173628 85.5833128 -14.31567383 79.17480469 C-14.30962553 72.57408152 -14.32197341 65.97357105 -14.3432439 59.37288415 C-14.36087396 53.69198292 -14.36685935 48.01114934 -14.36360615 42.33022177 C-14.36179659 38.94307445 -14.36439733 35.55607917 -14.37832069 32.16895676 C-14.39064644 28.39420862 -14.38391683 24.61995496 -14.37231445 20.84521484 C-14.37995819 19.72921402 -14.38760193 18.6132132 -14.39547729 17.46339417 C-14.35101005 10.9233886 -13.9070041 6.11464724 -9.25 1.125 C-5.95966302 -0.52016849 -3.62891507 -0.44565624 0 0 Z " fill="#FCFCFC" transform="translate(278,162)"/>
<path d="M0 0 C6.13869493 4.24085413 10.68431823 10.32639219 13.046875 17.4140625 C13.90502464 26.1549295 13.33090278 33.2130386 8.046875 40.4140625 C1.42832423 47.78758104 -4.84767408 51.37421374 -14.703125 51.9765625 C-22.46399238 51.76043708 -29.0309148 48.73285575 -34.93359375 43.73828125 C-41.43156484 36.75897897 -42.5991569 29.22822187 -42.359375 19.88671875 C-41.50588618 12.59103064 -38.39644975 7.44309145 -33.078125 2.4765625 C-23.21908523 -5.26460947 -11.06752293 -6.47413923 0 0 Z " fill="#020202" transform="translate(378.953125,295.5859375)"/>
</svg>
